<svg xmlns="http://www.w3.org/2000/svg" version="1.1" xmlns:xlink="http://www.w3.org/1999/xlink" xmlns:svgjs="http://svgjs.dev/svgjs" width="1500" height="1500" viewBox="0 0 1500 1500"><g transform="matrix(1,0,0,1,-0.323615160350073,-0.3236151603499593)"><svg viewBox="0 0 343 343" data-background-color="#fbfbff" preserveAspectRatio="xMidYMid meet" height="1500" width="1500" xmlns="http://www.w3.org/2000/svg" xmlns:xlink="http://www.w3.org/1999/xlink"><g id="tight-bounds" transform="matrix(1,0,0,1,0.0740000000000407,0.07400000000001228)"><svg viewBox="0 0 342.85155851775386 342.85155851775386" height="342.85155851775386" width="342.85155851775386"><g><svg></svg></g><g><svg viewBox="0 0 342.85155851775386 342.85155851775386" height="342.85155851775386" width="342.85155851775386"><g><path d="M0 171.426c0-94.676 76.75-171.426 171.426-171.426 94.676 0 171.426 76.75 171.426 171.426 0 94.676-76.75 171.426-171.426 171.426-94.676 0-171.426-76.75-171.426-171.426zM171.426 337.534c91.739 0 166.108-74.369 166.108-166.108 0-91.739-74.369-166.108-166.108-166.109-91.739 0-166.108 74.369-166.109 166.109 0 91.739 74.369 166.108 166.109 166.108z" data-fill-palette-color="tertiary" fill="#ff5500" stroke="transparent"></path><ellipse rx="164.56874808852186" ry="164.56874808852186" cx="171.42577925887693" cy="171.42577925887693" fill="#ff5500" stroke="transparent" stroke-width="0" fill-opacity="1" data-fill-palette-color="tertiary"></ellipse></g><g transform="matrix(1,0,0,1,64.84655864529837,101.96874903756378)"><svg viewBox="0 0 213.1584412271571 138.9140604426263" height="138.9140604426263" width="213.1584412271571"><g><svg viewBox="0 0 213.1584412271571 138.9140604426263" height="138.9140604426263" width="213.1584412271571"><g><svg viewBox="0 0 213.1584412271571 138.9140604426263" height="138.9140604426263" width="213.1584412271571"><g transform="matrix(1,0,0,1,0,79.95154107551662)"><svg viewBox="0 0 213.1584412271571 58.96251936710968" height="58.96251936710968" width="213.1584412271571"><g id="textblocktransform"><svg viewBox="0 0 213.1584412271571 58.96251936710968" height="58.96251936710968" width="213.1584412271571" id="textblock"><g><svg viewBox="0 0 213.1584412271571 58.96251936710968" height="58.96251936710968" width="213.1584412271571"><g transform="matrix(1,0,0,1,0,0)"><svg width="213.1584412271571" viewBox="0 -31.74 116.5 32.23" height="58.96251936710968" data-palette-color="#ffffff"><path d="M19.38 0L29.93 0Q29.93-1.07 29.15-1.22L29.15-1.22Q28.91-1.27 28.66-1.27L28.66-1.27 27-1.27 15.82-29.3 14.01-29.3 3.08-1.27 0-1.27 0 0 8.69 0Q8.69-1.07 7.91-1.22L7.91-1.22Q7.67-1.27 7.42-1.27L7.42-1.27 5.03-1.27 8.69-10.74 18.9-10.74 22.56-1.27 19.38-1.27 19.38 0ZM13.77-23.97L18.36-12.16 9.23-12.16 13.77-23.97ZM40.96-1.22L40.96-1.22 38.77-1.22 38.77-8.45 41.45-10.94 48.34 0 54.83 0Q54.83-1.07 54.1-1.17L54.1-1.17Q53.9-1.22 53.61-1.22L53.61-1.22 51.85-1.22 43.99-13.33 48.58-17.63Q50.29-19.24 51.17-19.43L51.17-19.43Q51.56-19.53 52.05-19.53L52.05-19.53Q53.12-19.53 53.22-20.26L53.22-20.26Q53.27-20.51 53.27-20.75L53.27-20.75 44.97-20.75 44.97-19.53 48.63-19.53 38.77-10.4 38.77-31.74 31.44-31.74 31.44-30.52 35.1-30.52 35.1-4.15Q35.1-1.9 33.84-1.46L33.84-1.46Q33.1-1.22 31.44-1.22L31.44-1.22 31.44 0 42.19 0Q42.19-1.07 41.45-1.17L41.45-1.17Q41.26-1.22 40.96-1.22ZM73.43 0.49L73.43 0.49Q77.19 0.49 77.58-4.05L77.58-4.05Q77.63-4.35 77.63-4.59L77.63-4.59 76.36-4.64Q76.02-1.07 74.46-1.03L74.46-1.03Q73.19-1.12 73.14-3.56L73.14-3.56 73.14-13.87Q73.14-20.85 66.16-21.24L66.16-21.24Q65.72-21.24 65.28-21.24L65.28-21.24Q59.81-21.24 57.95-18.7L57.95-18.7Q57.37-17.87 57.37-17.04L57.37-17.04Q57.37-15.53 58.78-15.28L58.78-15.28Q59.03-15.23 59.27-15.23L59.27-15.23Q60.4-15.23 60.93-16.65L60.93-16.65Q61.62-18.46 61.86-18.8L61.86-18.8Q62.79-20.02 64.74-20.02L64.74-20.02Q69.33-19.73 69.48-14.99L69.48-14.99 69.48-11.91Q58-11.91 56.34-7.13L56.34-7.13Q56.05-6.2 56.05-5.13L56.05-5.13Q56.05-1.42 59.32-0.05L59.32-0.05Q60.64 0.49 62.1 0.49L62.1 0.49Q65.67 0.49 68.11-1.95L68.11-1.95Q68.99-2.88 69.43-3.91L69.43-3.91Q70.01 0.44 73.43 0.49ZM63.72-1.46L63.72-1.46Q60.74-1.46 60.05-4.44L60.05-4.44Q59.91-5.13 59.91-5.96L59.91-5.96Q59.91-9.23 63.67-10.11L63.67-10.11Q65.67-10.55 69.48-10.6L69.48-10.6 69.48-6.69Q68.75-3.32 65.91-1.95L65.91-1.95Q64.79-1.46 63.72-1.46ZM88.86-1.22L88.86-1.22 86.66-1.22 86.66-11.77Q86.81-16.06 89.64-18.16L89.64-18.16Q90.96-19.14 92.28-19.14L92.28-19.14Q94.72-19.14 95.65-16.46L95.65-16.46Q96.04-15.28 96.04-13.82L96.04-13.82 96.04-4.15Q96.04-1.9 94.96-1.46L94.96-1.46Q94.28-1.22 92.62-1.22L92.62-1.22 92.62 0 103.12 0Q103.12-1.07 102.39-1.17L102.39-1.17Q102.19-1.22 101.9-1.22L101.9-1.22 99.7-1.22 99.7-13.33 99.7-13.72Q100.48-17.29 103.17-18.7L103.17-18.7Q104.19-19.19 105.12-19.19L105.12-19.19Q107.61-19.19 108.64-16.6L108.64-16.6Q109.12-15.38 109.12-13.82L109.12-13.82 109.12-4.15Q109.12-1.9 108.05-1.46L108.05-1.46Q107.37-1.22 105.71-1.22L105.71-1.22 105.71 0 116.5 0Q116.5-1.07 115.76-1.17L115.76-1.17Q115.57-1.22 115.28-1.22L115.28-1.22 112.79-1.22 112.79-13.33Q112.79-18.36 109.51-20.36L109.51-20.36Q108.05-21.24 106.34-21.24L106.34-21.24Q102.63-21.24 100.38-17.77L100.38-17.77Q99.8-16.89 99.41-15.92L99.41-15.92Q98.53-19.78 95.55-20.9L95.55-20.9Q94.67-21.24 93.74-21.24L93.74-21.24Q90.23-21.24 87.93-18.26L87.93-18.26Q87.1-17.19 86.61-15.87L86.61-15.87 86.42-20.75 79.34-20.75 79.34-19.53 83-19.53 83-4.15Q83-1.9 81.73-1.46L81.73-1.46Q81-1.22 79.34-1.22L79.34-1.22 79.34 0 90.08 0Q90.08-1.03 89.35-1.17L89.35-1.17Q89.1-1.22 88.86-1.22Z" opacity="1" transform="matrix(1,0,0,1,0,0)" fill="#ffffff" class="wordmark-text-0" data-fill-palette-color="quaternary" id="text-0"></path></svg></g></svg></g></svg></g></svg></g><g transform="matrix(1,0,0,1,40.713262274387006,0)"><svg viewBox="0 0 131.7319166783831 66.03190535340683" height="66.03190535340683" width="131.7319166783831"><g><svg xmlns="http://www.w3.org/2000/svg" xmlns:xlink="http://www.w3.org/1999/xlink" xml:space="preserve" style="shape-rendering:geometricPrecision;text-rendering:geometricPrecision;image-rendering:optimizeQuality;" viewBox="0 -0.00004110933377126161 14.727 7.382052084718504" x="0" y="0" fill-rule="evenodd" clip-rule="evenodd" id="icon-0" width="131.7319166783831" height="66.03190535340683" class="icon-icon-0" data-fill-palette-color="quaternary"><g fill="#ffffff" data-fill-palette-color="quaternary"><path class="" d="M1.757 3.091C1.444 3.535 1.46 4.421 1.34 5.041 1.187 5.825 0.63 6.244 0 6.575 0.188 5.805 0.348 5.033 0.412 4.262 0.49 3.31 0.352 3.372 1.179 2.687 2.338 1.727 4.218 0.946 7.027 0.397 9.483-0.009 12.077-0.056 14.727 0.046 13.838 1.855 10.995 2.006 7.526 1.627 5.715 1.647 4.03 1.139 1.757 3.091M10.087 5.872C6.192 7.911 2.285 3.588 0.922 6.56 3.026 4.729 6.002 9.743 10.087 5.872M12.576 3.325C8.086 6.045 3.073 2.534 1.669 5.185 5.081 3.95 9.434 7.937 12.576 3.324M13.41 1.847C9.466 3.607 3.367 0.445 1.845 4.087 4.95 2.277 10.29 5.523 13.41 1.846" fill="#ffffff" data-fill-palette-color="quaternary"></path></g></svg></g></svg></g><g></g></svg></g></svg></g></svg></g></svg></g><defs></defs></svg><rect width="342.85155851775386" height="342.85155851775386" fill="none" stroke="none" visibility="hidden"></rect></g></svg></g></svg>